<svg xmlns="http://www.w3.org/2000/svg" viewBox="0 0 32 32">
  <defs>
    <linearGradient id="grad" x1="0%" y1="0%" x2="100%" y2="100%">
      <stop offset="0%" style="stop-color:#14b8a6"/>
      <stop offset="100%" style="stop-color:#0891b2"/>
    </linearGradient>
  </defs>
  <rect width="32" height="32" rx="6" fill="url(#grad)"/>
  <g fill="white" transform="scale(0.0625)">
    <path d="M256 96c-88.4 0-160 64.5-160 144 0 44.2 22.3 83.6 57.2 109.4-2.7 24.1-13.2 52.1-25.2 73.4 31.6-9.5 66.4-27.3 92.1-44.6 11.6 2 23.6 3.2 35.9 3.2 88.4 0 160-64.5 160-144S344.4 96 256 96zm-48 168c-13.3 0-24-10.7-24-24s10.7-24 24-24 24 10.7 24 24-10.7 24-24 24zm48 0c-13.3 0-24-10.7-24-24s10.7-24 24-24 24 10.7 24 24-10.7 24-24 24zm48 0c-13.3 0-24-10.7-24-24s10.7-24 24-24 24 10.7 24 24-10.7 24-24 24z"/>
  </g>
</svg>
